<svg width="30" height="30" viewBox="0 0 30 30" fill="none" xmlns="http://www.w3.org/2000/svg">
<path d="M30.0001 21.5634C30.0001 17.8912 27.6507 14.7759 24.3769 13.6163V3.75H22.5019V1.87406H24.3769V0H2.81443C2.73568 0.00375 2.15068 -0.00749999 1.4588 0.331875C0.757552 0.643125 -0.031823 1.54219 0.000989486 2.8125C0.000989486 2.81813 0.00192699 2.82375 0.00192699 2.82937V28.125C0.00192699 30 1.87693 30 1.87693 30H21.6404L21.6338 29.9963C26.2622 29.9578 30.0001 26.1994 30.0001 21.5634ZM2.67474 3.73219C2.50786 3.70781 2.26693 3.62719 2.13193 3.50906C2.00255 3.38344 1.89099 3.28125 1.87693 2.8125C1.90786 2.20688 2.0588 2.16937 2.29599 2.01C2.41786 1.94906 2.56693 1.90969 2.67474 1.89281C2.78443 1.87219 2.81255 1.87969 2.81443 1.87406H20.6269V3.75H2.81443C2.81255 3.75 2.78443 3.75187 2.67474 3.73219ZM3.75005 28.125V5.625H22.5001V13.1813C22.1916 13.1466 21.8785 13.125 21.5607 13.125C19.5526 13.125 17.7113 13.8291 16.2629 15H5.62505V16.875H14.5463C14.1591 17.4525 13.8497 18.0834 13.6135 18.75H5.62505V20.625H13.1785C13.1447 20.9334 13.1232 21.2456 13.1232 21.5634C13.1232 24.2156 14.3485 26.5791 16.2619 28.125H3.75005ZM21.5626 28.125C17.9391 28.1175 15.0057 25.1859 15.0001 21.5634C15.0057 17.94 17.9391 15.0056 21.5626 15C25.186 15.0056 28.1176 17.94 28.1251 21.5634C28.1176 25.1859 25.186 28.1175 21.5626 28.125ZM20.6251 11.25H5.62505V13.125H20.6251V11.25Z" fill="#D9D9D9"/>
<path d="M23.1123 15L17.8125 22.6562H20.9917L20.0127 28.125L25.3125 20.4688H22.1333L23.1123 15Z" fill="#D9D9D9"/>
</svg>
