<svg width="23" height="28" viewBox="0 0 23 28" fill="none" xmlns="http://www.w3.org/2000/svg">
<path d="M10.6633 18.6623C11.0929 17.5644 11.7135 16.4187 12.4295 15.3685C11.5225 14.7957 10.6155 14.0797 9.80405 13.3159L5.9375 17.1825C7.22635 18.3281 8.75388 19.0441 10.3769 19.3306L10.6633 18.6623Z" fill="#D9D9D9"/>
<path d="M17.8244 17.4706H17.6334C16.2491 17.232 14.7693 16.7069 13.385 15.9431C12.669 16.9456 12.0961 17.9957 11.7143 19.0459L11.571 19.4278C13.7669 19.6187 16.0104 18.9504 17.8244 17.4706Z" fill="#D9D9D9"/>
<path d="M4.84014 4.4873C3.40809 6.30124 2.73979 8.59253 2.883 10.7884L3.26488 10.6451C4.36279 10.2155 5.41297 9.6427 6.41541 8.92668C5.69938 7.59009 5.17429 6.25351 4.93561 4.96466L4.84014 4.4873Z" fill="#D9D9D9"/>
<path d="M2.97852 11.983C3.26493 13.5583 3.98095 15.0858 5.1266 16.3747L8.99315 12.5081C8.22939 11.6966 7.56109 10.8374 6.94054 9.93042C5.84263 10.6942 4.74472 11.267 3.59907 11.7444L2.97852 11.983Z" fill="#D9D9D9"/>
<path d="M19.1599 16.2306C20.6874 14.4167 21.4511 12.1254 21.3557 9.88184L21.0693 9.92957C19.8759 10.3592 18.7302 10.9797 17.6323 11.7435C18.3961 13.1278 18.9212 14.6076 19.1599 15.9919V16.2306Z" fill="#D9D9D9"/>
<path d="M6.12939 3.15106L6.65448 3.24653C7.94333 3.4852 9.32765 4.01029 10.6642 4.72632C11.4757 3.62841 12.0963 2.43503 12.4782 1.24165L12.5736 0.955238C10.2824 0.859768 7.94333 1.62353 6.12939 3.15106Z" fill="#D9D9D9"/>
<path d="M9.51802 7.82734C8.99293 8.35243 8.46784 8.82978 7.89502 9.2594C8.42011 10.1186 9.0884 10.9301 9.80443 11.6939L13.3846 8.11375C12.6208 7.39773 11.8093 6.72943 10.9501 6.20435C10.4727 6.77717 9.99537 7.30226 9.51802 7.82734Z" fill="#D9D9D9"/>
<path d="M13.5282 1.62396C13.0986 2.91281 12.4303 4.15393 11.571 5.34731C12.478 5.92013 13.3372 6.58842 14.1487 7.35219L18.2062 3.2947C16.8697 2.14905 15.2944 1.38529 13.6714 1.09888L13.5282 1.62396Z" fill="#D9D9D9"/>
<path d="M14.9595 8.16418C15.7232 8.97568 16.4393 9.88265 17.0121 10.7896C18.2055 9.97812 19.4466 9.30982 20.6877 8.83247H20.7354L21.165 8.737C20.8786 7.06627 20.1626 5.44327 18.9692 4.10669L14.9595 8.16418Z" fill="#D9D9D9"/>
<path d="M5.9375 4.29553L6.03297 4.82062C6.22391 5.96626 6.70126 7.11191 7.32182 8.30529C7.79917 7.92341 8.27652 7.49379 8.75388 7.01644C9.18349 6.58682 9.61311 6.10947 9.99499 5.67985C8.84935 5.0593 7.65597 4.58194 6.51032 4.391L5.9375 4.29553Z" fill="#D9D9D9"/>
<path d="M18.0151 16.1837C17.8242 14.9426 17.3468 13.7014 16.6785 12.4603C16.2012 12.8422 15.7716 13.2241 15.3419 13.6537C14.9123 14.0833 14.4827 14.5607 14.1008 15.038C15.3419 15.7063 16.5831 16.1837 17.8242 16.3269L18.0629 16.3746L18.0151 16.1837Z" fill="#D9D9D9"/>
<path d="M14.5299 12.8412C15.055 12.3161 15.5801 11.8865 16.1052 11.4568C15.5323 10.5976 14.9118 9.73837 14.148 8.97461L10.5679 12.5547C11.3794 13.3185 12.1909 13.9391 13.0501 14.5119C13.5275 13.8913 14.0048 13.3662 14.5299 12.8412Z" fill="#D9D9D9"/>
<path d="M20.0193 19.3328L21.2604 20.5739L22.406 19.4282L20.067 17.0892L19.4465 17.662C17.4893 19.6192 14.8639 20.7171 12.0475 20.7171C9.23112 20.7171 6.65342 19.6192 4.64854 17.662C0.591051 13.6045 0.591051 6.96934 4.64854 2.91185L5.22136 2.33903L2.88234 0L1.78443 1.14565L2.97781 2.33903C-1.17515 7.06481 -0.98421 14.2728 3.55063 18.8077C5.46004 20.7171 7.89453 21.9105 10.52 22.2446V25.777H6.98757V27.4H15.6754V25.777H12.143V22.3401C15.0548 22.2923 17.8235 21.2422 20.0193 19.3328Z" fill="#D9D9D9"/>
</svg>
