<svg width="30" height="30" viewBox="0 0 30 30" fill="none" xmlns="http://www.w3.org/2000/svg">
<path d="M3.93741 19.645C4.84867 18.7448 5.89903 17.9972 7.04811 17.4311L11.2518 21.6347L13.2275 19.659L9.97665 16.4082C11.2214 16.1552 12.4987 16.1032 13.7599 16.2541C14.1135 19.3029 13.2751 22.3704 11.4199 24.8155L6.19337 19.617L4.20364 21.6067L9.52826 26.9173L8.4213 28.0243L10.397 30L12.3447 28.0523C13.8345 26.5662 14.9882 24.7777 15.7278 22.8077C16.4675 20.8376 16.776 18.7318 16.6324 16.6324C18.7318 16.776 20.8376 16.4675 22.8077 15.7278C24.7777 14.9882 26.5662 13.8345 28.0523 12.3447L30 10.397L28.0243 8.40729L26.0766 10.369C25.1653 11.2692 24.115 12.0168 22.9659 12.5829L18.7623 8.37926L16.8146 10.397L20.0374 13.6058C18.7925 13.8583 17.5153 13.9104 16.2541 13.7599C15.9005 10.7111 16.7389 7.64359 18.5941 5.19851L23.8206 10.425L25.7964 8.44932L20.4858 3.09668L21.5927 1.98972L19.617 0L17.6693 1.9617C16.1795 3.44786 15.0259 5.23631 14.2862 7.20635C13.5465 9.17639 13.238 11.2822 13.3816 13.3816C11.2822 13.238 9.17639 13.5465 7.20635 14.2862C5.23631 15.0259 3.44786 16.1795 1.9617 17.6693L0 19.617L1.97571 21.5927L3.93741 19.645Z" fill="#D9D9D9"/>
</svg>
