<svg width="26" height="29" viewBox="0 0 26 29" fill="none" xmlns="http://www.w3.org/2000/svg">
<path d="M12.9993 5.72266C11.0945 5.80433 9.28933 6.60959 7.94122 7.979C6.59311 9.34841 5.80037 11.1821 5.71997 13.117C5.73482 15.0774 6.47921 16.9596 7.80369 18.3855C8.25934 18.7544 8.6334 19.2167 8.90148 19.7422C9.16957 20.2678 9.32568 20.8448 9.35965 21.4357C9.35965 21.6808 9.45552 21.9159 9.62616 22.0893C9.7968 22.2626 10.0282 22.36 10.2696 22.36H15.7291C15.9704 22.36 16.2019 22.2626 16.3725 22.0893C16.5431 21.9159 16.639 21.6808 16.639 21.4357C16.6676 20.8481 16.8195 20.2736 17.0848 19.7507C17.35 19.2278 17.7224 18.7686 18.1768 18.404C18.8596 17.712 19.3978 16.8869 19.7589 15.9784C20.1201 15.0699 20.2969 14.0966 20.2787 13.117C20.2794 12.1141 20.0835 11.121 19.7023 10.1958C19.3211 9.27059 18.7623 8.4318 18.0585 7.72838C17.39 7.06759 16.5978 6.54964 15.7288 6.20514C14.8599 5.86064 13.9318 5.69658 12.9993 5.72266ZM16.9484 17.073C15.9175 17.9638 15.1991 19.1703 14.9011 20.5114H11.0976C10.8023 19.1828 10.1017 17.9828 9.09577 17.0822C8.11012 16.0028 7.55543 14.5892 7.53981 13.117C7.60423 11.6672 8.2001 10.2944 9.21033 9.26816C10.2206 8.24197 11.5721 7.63668 12.9993 7.57125C13.6916 7.54686 14.3816 7.66534 15.0275 7.91953C15.6734 8.17372 16.2619 8.55834 16.7573 9.05012C17.2934 9.57861 17.7201 10.2106 18.0123 10.909C18.3045 11.6075 18.4564 12.3582 18.4589 13.117C18.4749 13.8472 18.3472 14.5733 18.0831 15.2527C17.819 15.9321 17.424 16.5509 16.9211 17.073H16.9484Z" fill="#D9D9D9"/>
<path d="M15.73 23.4H10.27C10.0286 23.4 9.79718 23.4822 9.62652 23.6285C9.45586 23.7748 9.35999 23.9732 9.35999 24.18C9.35999 24.3869 9.45586 24.5853 9.62652 24.7316C9.79718 24.8778 10.0286 24.96 10.27 24.96H15.73C15.9713 24.96 16.2028 24.8778 16.3735 24.7316C16.5441 24.5853 16.64 24.3869 16.64 24.18C16.64 23.9732 16.5441 23.7748 16.3735 23.6285C16.2028 23.4822 15.9713 23.4 15.73 23.4Z" fill="#D9D9D9"/>
<path d="M14.7334 26H11.2667C11.0368 26 10.8164 26.1096 10.6539 26.3046C10.4913 26.4996 10.4 26.7642 10.4 27.04C10.4 27.3158 10.4913 27.5804 10.6539 27.7754C10.8164 27.9704 11.0368 28.08 11.2667 28.08H14.7334C14.9632 28.08 15.1837 27.9704 15.3462 27.7754C15.5087 27.5804 15.6 27.3158 15.6 27.04C15.6 26.7642 15.5087 26.4996 15.3462 26.3046C15.1837 26.1096 14.9632 26 14.7334 26Z" fill="#D9D9D9"/>
<path d="M13 3.64C13.2758 3.64 13.5403 3.54413 13.7354 3.37347C13.9304 3.20281 14.04 2.97135 14.04 2.73V0.91C14.04 0.668653 13.9304 0.437191 13.7354 0.266533C13.5403 0.0958747 13.2758 0 13 0C12.7241 0 12.4596 0.0958747 12.2646 0.266533C12.0695 0.437191 11.96 0.668653 11.96 0.91V2.73C11.96 2.97135 12.0695 3.20281 12.2646 3.37347C12.4596 3.54413 12.7241 3.64 13 3.64Z" fill="#D9D9D9"/>
<path d="M2.73 11.96H0.91C0.668653 11.96 0.437191 12.0695 0.266533 12.2646C0.0958747 12.4596 0 12.7241 0 13C0 13.2758 0.0958747 13.5403 0.266533 13.7354C0.437191 13.9304 0.668653 14.04 0.91 14.04H2.73C2.97135 14.04 3.20281 13.9304 3.37347 13.7354C3.54413 13.5403 3.64 13.2758 3.64 13C3.64 12.7241 3.54413 12.4596 3.37347 12.2646C3.20281 12.0695 2.97135 11.96 2.73 11.96Z" fill="#D9D9D9"/>
<path d="M25.09 11.96H23.27C23.0286 11.96 22.7972 12.0695 22.6265 12.2646C22.4559 12.4596 22.36 12.7241 22.36 13C22.36 13.2758 22.4559 13.5403 22.6265 13.7354C22.7972 13.9304 23.0286 14.04 23.27 14.04H25.09C25.3313 14.04 25.5628 13.9304 25.7335 13.7354C25.9041 13.5403 26 13.2758 26 13C26 12.7241 25.9041 12.4596 25.7335 12.2646C25.5628 12.0695 25.3313 11.96 25.09 11.96Z" fill="#D9D9D9"/>
<path d="M22.0944 3.90601C21.9233 3.73564 21.6919 3.64001 21.4506 3.64001C21.2094 3.64001 20.9779 3.73564 20.8068 3.90601L19.5101 5.1958C19.4245 5.28083 19.3566 5.382 19.3102 5.49347C19.2639 5.60494 19.24 5.7245 19.24 5.84526C19.24 5.96602 19.2639 6.08558 19.3102 6.19705C19.3566 6.30852 19.4245 6.40969 19.5101 6.49472C19.5954 6.5795 19.6966 6.64658 19.8079 6.6921C19.9192 6.73762 20.0383 6.7607 20.1585 6.76C20.2787 6.7607 20.3978 6.73762 20.5091 6.6921C20.6203 6.64658 20.7215 6.5795 20.8068 6.49472L22.0944 5.1958C22.2645 5.02441 22.36 4.79257 22.36 4.5509C22.36 4.30924 22.2645 4.0774 22.0944 3.90601Z" fill="#D9D9D9"/>
<path d="M6.48586 6.49075C6.57273 6.40444 6.64168 6.30175 6.68873 6.18861C6.73579 6.07548 6.76001 5.95412 6.76001 5.83156C6.76001 5.70899 6.73579 5.58764 6.68873 5.4745C6.64168 5.36136 6.57273 5.25868 6.48586 5.17237L5.16973 3.86326C4.99243 3.71116 4.76435 3.63168 4.53109 3.64071C4.29782 3.64973 4.07655 3.7466 3.91148 3.91195C3.74642 4.0773 3.64972 4.29895 3.64071 4.53262C3.6317 4.76629 3.71104 4.99475 3.86288 5.17237L5.16973 6.49075C5.25634 6.5768 5.35905 6.64488 5.47197 6.69108C5.5849 6.73729 5.70582 6.76071 5.82779 6.76C5.94977 6.76071 6.07069 6.73729 6.18362 6.69108C6.29654 6.64488 6.39925 6.5768 6.48586 6.49075Z" fill="#D9D9D9"/>
</svg>
